<svg width="14" height="15" viewBox="0 0 14 15" fill="none" xmlns="http://www.w3.org/2000/svg">
<path fill-rule="evenodd" clip-rule="evenodd" d="M7 1.43333C3.64947 1.43333 0.933333 4.14947 0.933333 7.5C0.933333 10.8505 3.64947 13.5667 7 13.5667C10.3505 13.5667 13.0667 10.8505 13.0667 7.5C13.0667 4.14947 10.3505 1.43333 7 1.43333ZM0 7.5C0 3.63401 3.13401 0.5 7 0.5C10.866 0.5 14 3.63401 14 7.5C14 11.366 10.866 14.5 7 14.5C3.13401 14.5 0 11.366 0 7.5Z" fill="#5C5C5C"/>
<path fill-rule="evenodd" clip-rule="evenodd" d="M3.7334 7.50011C3.7334 7.24238 3.94233 7.03345 4.20007 7.03345H9.80006C10.0578 7.03345 10.2667 7.24238 10.2667 7.50011C10.2667 7.75785 10.0578 7.96678 9.80006 7.96678H4.20007C3.94233 7.96678 3.7334 7.75785 3.7334 7.50011Z" fill="#5C5C5C"/>
<path fill-rule="evenodd" clip-rule="evenodd" d="M6.99987 4.2334C7.2576 4.2334 7.46654 4.44233 7.46654 4.70007V10.3001C7.46654 10.5578 7.2576 10.7667 6.99987 10.7667C6.74214 10.7667 6.5332 10.5578 6.5332 10.3001V4.70007C6.5332 4.44233 6.74214 4.2334 6.99987 4.2334Z" fill="#5C5C5C"/>
</svg>
