<svg width="14" height="15" viewBox="0 0 14 15" fill="none" xmlns="http://www.w3.org/2000/svg">
<path d="M7 0.5C5.61553 0.5 4.26215 0.910543 3.11101 1.67971C1.95987 2.44888 1.06266 3.54213 0.532846 4.82122C0.00303299 6.1003 -0.13559 7.50776 0.134506 8.86563C0.404603 10.2235 1.07129 11.4708 2.05026 12.4497C3.02922 13.4287 4.2765 14.0954 5.63437 14.3655C6.99224 14.6356 8.3997 14.497 9.67879 13.9672C10.9579 13.4373 12.0511 12.5401 12.8203 11.389C13.5895 10.2378 14 8.88447 14 7.5C14 6.58075 13.8189 5.67049 13.4672 4.82122C13.1154 3.97194 12.5998 3.20026 11.9497 2.55025C11.2997 1.90024 10.5281 1.38463 9.67879 1.03284C8.82951 0.68106 7.91925 0.5 7 0.5ZM7 13.1C5.89243 13.1 4.80972 12.7716 3.88881 12.1562C2.96789 11.5409 2.25013 10.6663 1.82628 9.64303C1.40243 8.61976 1.29153 7.49379 1.50761 6.40749C1.72368 5.3212 2.25703 4.32338 3.0402 3.5402C3.82338 2.75703 4.8212 2.22368 5.9075 2.0076C6.99379 1.79153 8.11976 1.90242 9.14303 2.32627C10.1663 2.75013 11.0409 3.46789 11.6562 4.38881C12.2716 5.30972 12.6 6.39242 12.6 7.5C12.6 8.98521 12.01 10.4096 10.9598 11.4598C9.9096 12.51 8.48521 13.1 7 13.1Z" fill="#5C5C5C"/>
<path d="M6.99995 4.69995C6.44616 4.69995 5.90481 4.86417 5.44436 5.17184C4.9839 5.4795 4.62502 5.9168 4.41309 6.42844C4.20116 6.94007 4.14572 7.50306 4.25375 8.0462C4.36179 8.58935 4.62847 9.08826 5.02005 9.47985C5.41164 9.87144 5.91055 10.1381 6.4537 10.2461C6.99685 10.3542 7.55983 10.2987 8.07147 10.0868C8.5831 9.87489 9.0204 9.516 9.32807 9.05555C9.63573 8.59509 9.79995 8.05374 9.79995 7.49995C9.79995 6.75734 9.50495 6.04515 8.97985 5.52005C8.45475 4.99495 7.74256 4.69995 6.99995 4.69995ZM6.99995 8.89995C6.72306 8.89995 6.45238 8.81784 6.22215 8.66401C5.99193 8.51017 5.81248 8.29152 5.70652 8.03571C5.60056 7.77989 5.57283 7.4984 5.62685 7.22682C5.68087 6.95525 5.81421 6.7058 6.01 6.51C6.2058 6.31421 6.45525 6.18087 6.72683 6.12685C6.9984 6.07283 7.27989 6.10056 7.53571 6.20652C7.79153 6.31248 8.01018 6.49192 8.16401 6.72215C8.31784 6.95238 8.39995 7.22306 8.39995 7.49995C8.39995 7.87125 8.25245 8.22735 7.9899 8.4899C7.72735 8.75245 7.37126 8.89995 6.99995 8.89995Z" fill="#5C5C5C"/>
</svg>
