<svg width="15" height="15" viewBox="0 0 15 15" fill="none" xmlns="http://www.w3.org/2000/svg">
<path d="M4.8749 1.65005C5.357 1.65005 5.82826 1.79301 6.22911 2.06084C6.62995 2.32868 6.94237 2.70936 7.12686 3.15476C7.31135 3.60015 7.35962 4.09025 7.26557 4.56308C7.17152 5.03591 6.93937 5.47023 6.59848 5.81112C6.25759 6.15201 5.82327 6.38416 5.35044 6.47821C4.87761 6.57226 4.38751 6.52399 3.94211 6.33951C3.49672 6.15502 3.11603 5.8426 2.8482 5.44175C2.58036 5.04091 2.4374 4.56964 2.4374 4.08755C2.4374 3.44108 2.69421 2.8211 3.15133 2.36398C3.60845 1.90686 4.22844 1.65005 4.8749 1.65005ZM4.8749 0.675049C4.19998 0.675049 3.5402 0.875188 2.97902 1.25016C2.41784 1.62513 1.98045 2.15809 1.72216 2.78164C1.46388 3.40519 1.3963 4.09133 1.52797 4.75329C1.65965 5.41525 1.98466 6.0233 2.4619 6.50055C2.93915 6.9778 3.5472 7.30281 4.20916 7.43448C4.87112 7.56615 5.55726 7.49857 6.18081 7.24029C6.80436 6.982 7.33732 6.54461 7.71229 5.98343C8.08726 5.42225 8.2874 4.76248 8.2874 4.08755C8.2874 3.1825 7.92787 2.31451 7.28791 1.67455C6.64794 1.03458 5.77996 0.675049 4.8749 0.675049Z" fill="#5C5C5C"/>
<path d="M9.75 14.3251H8.775V11.8876C8.775 11.2411 8.51819 10.6211 8.06107 10.164C7.60395 9.7069 6.98397 9.4501 6.3375 9.4501H3.4125C2.76603 9.4501 2.14605 9.7069 1.68893 10.164C1.23181 10.6211 0.975 11.2411 0.975 11.8876V14.3251H0V11.8876C0 10.9825 0.35953 10.1146 0.999498 9.4746C1.63947 8.83463 2.50745 8.4751 3.4125 8.4751H6.3375C7.24255 8.4751 8.11053 8.83463 8.7505 9.4746C9.39047 10.1146 9.75 10.9825 9.75 11.8876V14.3251Z" fill="#5C5C5C"/>
<path d="M9.75 1.65015H14.625V2.62515H9.75V1.65015Z" fill="#5C5C5C"/>
<path d="M9.75 4.08765H14.625V5.06265H9.75V4.08765Z" fill="#5C5C5C"/>
<path d="M9.75 6.52515H13.1625V7.50015H9.75V6.52515Z" fill="#5C5C5C"/>
</svg>
