<svg width="24" height="24" viewBox="0 0 24 24" fill="none" xmlns="http://www.w3.org/2000/svg">
<path fill-rule="evenodd" clip-rule="evenodd" d="M12 1.6C6.25624 1.6 1.6 6.25624 1.6 12C1.6 17.7438 6.25624 22.4 12 22.4C17.7438 22.4 22.4 17.7438 22.4 12C22.4 6.25624 17.7438 1.6 12 1.6ZM0 12C0 5.37258 5.37258 0 12 0C18.6274 0 24 5.37258 24 12C24 18.6274 18.6274 24 12 24C5.37258 24 0 18.6274 0 12Z" fill="#777777"/>
<path fill-rule="evenodd" clip-rule="evenodd" d="M6.39999 12C6.39999 11.5581 6.75817 11.2 7.19999 11.2H16.8C17.2418 11.2 17.6 11.5581 17.6 12C17.6 12.4418 17.2418 12.8 16.8 12.8H7.19999C6.75817 12.8 6.39999 12.4418 6.39999 12Z" fill="#777777"/>
<path fill-rule="evenodd" clip-rule="evenodd" d="M12 6.3999C12.4418 6.3999 12.8 6.75807 12.8 7.1999V16.7999C12.8 17.2417 12.4418 17.5999 12 17.5999C11.5582 17.5999 11.2 17.2417 11.2 16.7999V7.1999C11.2 6.75807 11.5582 6.3999 12 6.3999Z" fill="#777777"/>
</svg>
