<svg width="14" height="15" viewBox="0 0 14 15" fill="none" xmlns="http://www.w3.org/2000/svg">
<path fill-rule="evenodd" clip-rule="evenodd" d="M7 1.43333C3.64947 1.43333 0.933333 4.14947 0.933333 7.5C0.933333 10.8505 3.64947 13.5667 7 13.5667C10.3505 13.5667 13.0667 10.8505 13.0667 7.5C13.0667 4.14947 10.3505 1.43333 7 1.43333ZM0 7.5C0 3.63401 3.13401 0.5 7 0.5C10.866 0.5 14 3.63401 14 7.5C14 11.366 10.866 14.5 7 14.5C3.13401 14.5 0 11.366 0 7.5Z" fill="#5C5C5C"/>
<path fill-rule="evenodd" clip-rule="evenodd" d="M3.7334 7.49987C3.7334 7.24214 3.94233 7.0332 4.20007 7.0332H9.80006C10.0578 7.0332 10.2667 7.24214 10.2667 7.49987C10.2667 7.7576 10.0578 7.96654 9.80006 7.96654H4.20007C3.94233 7.96654 3.7334 7.7576 3.7334 7.49987Z" fill="#5C5C5C"/>
</svg>
