<svg width="14" height="13" viewBox="0 0 14 13" fill="none" xmlns="http://www.w3.org/2000/svg">
<path d="M10.15 0.5C8.925 0.5 7.77007 1.02319 7 1.87334C6.2299 1.02319 5.075 0.5 3.85 0.5C1.67993 0.5 0 2.06941 0 4.09672C0 6.58159 2.37993 8.57634 5.98487 11.6497L7 12.5L8.01513 11.6497C11.62 8.57631 14 6.58156 14 4.09672C14 2.06941 12.3201 0.5 10.15 0.5ZM7.43198 10.7893L7.29 10.9103L7 11.1532L6.71004 10.9103L6.56822 10.7894C4.87146 9.34313 3.40607 8.094 2.43735 6.97713C1.49649 5.89234 1.07692 5.004 1.07692 4.09672C1.07692 3.38219 1.36036 2.72388 1.87502 2.24309C2.38798 1.76391 3.08936 1.5 3.85 1.5C4.72951 1.5 5.59899 1.88022 6.17582 2.51703L7 3.42691L7.82415 2.51703C8.40101 1.88022 9.27046 1.5 10.15 1.5C10.9107 1.5 11.612 1.76391 12.125 2.24306C12.6396 2.72388 12.9231 3.38216 12.9231 4.09672C12.9231 5.004 12.5035 5.89231 11.5627 6.97706C10.594 8.09394 9.12871 9.34297 7.43198 10.7893Z" fill="#5C5C5C"/>
</svg>
