<svg width="14" height="14" viewBox="0 0 14 14" fill="none" xmlns="http://www.w3.org/2000/svg">
<path d="M7.45279 0.891563C7.30285 0.880493 7.15255 0.874948 7.0022 0.874939V0C7.17416 8.38433e-05 7.34605 0.00650442 7.51754 0.0192487L7.45279 0.891563ZM9.20617 1.28529C8.9257 1.17706 8.63765 1.08962 8.34435 1.02368L8.53597 0.169738C8.87107 0.244983 9.20092 0.344726 9.52115 0.468967L9.20617 1.28529ZM10.4048 1.90649C10.2797 1.82307 10.1516 1.74427 10.0207 1.67026L10.4521 0.909062C10.7512 1.07857 11.0375 1.26982 11.3086 1.48127L10.7706 2.1716C10.6519 2.07906 10.5299 1.99092 10.4048 1.90737V1.90649ZM12.0095 3.47263C11.8364 3.22675 11.6454 2.99397 11.4381 2.77618L12.0716 2.17247C12.3078 2.42183 12.5266 2.68869 12.7252 2.96867L12.0095 3.47263ZM12.6604 4.65555C12.603 4.51684 12.5405 4.38026 12.4732 4.24608L13.2545 3.85236C13.409 4.15953 13.5406 4.47771 13.6482 4.80429L12.817 5.07815C12.77 4.93541 12.7178 4.79445 12.6604 4.65555ZM13.1241 6.84902C13.1171 6.54834 13.0878 6.24859 13.0367 5.95221L13.8985 5.80347C13.9571 6.1412 13.9912 6.48417 14 6.82715L13.125 6.84902H13.1241ZM13.0095 8.19468C13.0384 8.04594 13.062 7.89807 13.0804 7.74846L13.9492 7.85608C13.9072 8.19744 13.8399 8.53521 13.748 8.86663L12.9045 8.63302C12.9448 8.48866 12.9798 8.34254 13.0095 8.19468ZM12.1766 10.2762C12.3376 10.0224 12.4793 9.75644 12.6018 9.48171L13.4015 9.83606C13.2615 10.151 13.0996 10.4538 12.9159 10.7443L12.1766 10.2762ZM11.3331 11.3305C11.4399 11.2237 11.5423 11.1135 11.6394 10.9997L12.3026 11.5711C12.1903 11.7013 12.0732 11.8274 11.9517 11.949L11.3331 11.3305Z" fill="#5C5C5C"/>
<path d="M7.00224 0.874939C5.99508 0.875012 5.00349 1.12346 4.11528 1.59828C3.22707 2.07311 2.46966 2.75965 1.91015 3.59709C1.35064 4.43454 1.00628 5.39704 0.90759 6.39936C0.808897 7.40167 0.958911 8.41285 1.34434 9.34334C1.72978 10.2738 2.33873 11.0949 3.11728 11.7339C3.89582 12.3728 4.81992 12.8099 5.80772 13.0064C6.79552 13.2029 7.81654 13.1528 8.78035 12.8604C9.74415 12.5681 10.621 12.0426 11.3332 11.3305L11.9518 11.949C11.1378 12.7634 10.1356 13.3645 9.03389 13.6989C7.93216 14.0334 6.76493 14.0909 5.63565 13.8665C4.50636 13.642 3.44987 13.1424 2.55978 12.4121C1.6697 11.6817 0.973509 10.7431 0.532889 9.67935C0.0922688 8.61562 -0.0791731 7.45962 0.0337533 6.31379C0.14668 5.16797 0.540488 4.06768 1.18028 3.11042C1.82008 2.15317 2.68611 1.3685 3.70165 0.825945C4.71718 0.283388 5.85086 -0.000305119 7.00224 2.46259e-07V0.874939Z" fill="#5C5C5C"/>
<path d="M6.56479 2.62476C6.68081 2.62476 6.79208 2.67085 6.87413 2.75289C6.95617 2.83493 7.00226 2.9462 7.00226 3.06223V7.62066L9.84406 9.24454C9.94187 9.30355 10.0127 9.39847 10.0415 9.50903C10.0702 9.61958 10.0546 9.737 9.99792 9.83618C9.94124 9.93536 9.84802 10.0084 9.73818 10.0398C9.62834 10.0712 9.51058 10.0583 9.41009 10.004L6.3478 8.25411C6.28085 8.21587 6.22519 8.1606 6.18647 8.09392C6.14775 8.02723 6.12734 7.9515 6.12732 7.87439V3.06223C6.12732 2.9462 6.17341 2.83493 6.25545 2.75289C6.33749 2.67085 6.44876 2.62476 6.56479 2.62476Z" fill="#5C5C5C"/>
</svg>
