<svg width="14" height="14" viewBox="0 0 14 14" fill="none" xmlns="http://www.w3.org/2000/svg">
<path fill-rule="evenodd" clip-rule="evenodd" d="M7 1.07692C3.72878 1.07692 1.07692 3.72878 1.07692 7C1.07692 8.39767 1.56102 9.68227 2.37069 10.6953C2.45319 10.501 2.55786 10.3209 2.68233 10.1551C3.0138 9.71348 3.46501 9.39981 3.94793 9.17752C4.90315 8.73783 6.07022 8.61539 7 8.61539C7.92978 8.61539 9.09685 8.73783 10.0521 9.17752C10.535 9.39981 10.9862 9.71348 11.3177 10.1551C11.4421 10.3209 11.5468 10.501 11.6293 10.6953C12.439 9.68227 12.9231 8.39768 12.9231 7C12.9231 3.72878 10.2713 1.07692 7 1.07692ZM10.7567 11.5796C10.7209 11.2602 10.6112 11.0079 10.4564 10.8016C10.2606 10.5407 9.97142 10.3259 9.60177 10.1558C8.85187 9.81059 7.86509 9.69231 7 9.69231C6.13491 9.69231 5.14813 9.81059 4.39823 10.1558C4.02858 10.3259 3.7394 10.5407 3.54363 10.8016C3.38879 11.0079 3.27906 11.2602 3.24333 11.5796C4.26559 12.4191 5.57394 12.9231 7 12.9231C8.42607 12.9231 9.73442 12.4191 10.7567 11.5796ZM0 7C0 3.13401 3.13401 0 7 0C10.866 0 14 3.13401 14 7C14 10.866 10.866 14 7 14C3.13401 14 0 10.866 0 7ZM7 3.23077C6.10782 3.23077 5.38462 3.954 5.38462 4.84615C5.38462 5.73834 6.10781 6.46154 7 6.46154C7.89219 6.46154 8.61539 5.73834 8.61539 4.84615C8.61539 3.954 7.89218 3.23077 7 3.23077ZM4.30769 4.84615C4.30769 3.35924 5.51304 2.15385 7 2.15385C8.48696 2.15385 9.69231 3.35924 9.69231 4.84615C9.69231 6.33311 8.48695 7.53846 7 7.53846C5.51305 7.53846 4.30769 6.33311 4.30769 4.84615Z" fill="#5C5C5C"/>
</svg>
