<svg width="14" height="15" viewBox="0 0 14 15" fill="none" xmlns="http://www.w3.org/2000/svg">
<path d="M12.6623 7.58092V7.18952V6.79297L13.6511 5.92778C13.8333 5.76713 13.9529 5.54721 13.9887 5.3069C14.0246 5.06659 13.9743 4.82136 13.8468 4.61454L12.6314 2.55456C12.5411 2.39814 12.4112 2.26822 12.2548 2.17783C12.0984 2.08743 11.921 2.03975 11.7404 2.03957C11.6285 2.03871 11.5172 2.05611 11.4108 2.09107L10.1594 2.51336C9.94333 2.36979 9.71795 2.24075 9.48475 2.12712L9.2221 0.829331C9.17501 0.59223 9.04602 0.379246 8.85772 0.227664C8.66942 0.076081 8.4338 -0.00444244 8.19211 0.000189225H5.78193C5.54025 -0.00444244 5.30463 0.076081 5.11633 0.227664C4.92803 0.379246 4.79904 0.59223 4.75194 0.829331L4.4893 2.12712C4.25443 2.24073 4.02733 2.36976 3.8095 2.51336L2.58382 2.07047C2.47633 2.04247 2.36503 2.03203 2.25422 2.03957C2.0736 2.03975 1.8962 2.08743 1.73982 2.17783C1.58345 2.26822 1.45359 2.39814 1.36328 2.55456L0.147889 4.61454C0.0276828 4.82105 -0.0169854 5.06293 0.021535 5.29875C0.0600553 5.53457 0.179368 5.74966 0.359037 5.90718L1.33238 6.79812V7.58607L0.359037 8.45126C0.174292 8.60987 0.0517168 8.82881 0.013063 9.06922C-0.0255909 9.30963 0.0221769 9.55596 0.147889 9.76449L1.36328 11.8245C1.45359 11.9809 1.58345 12.1108 1.73982 12.2012C1.8962 12.2916 2.0736 12.3393 2.25422 12.3395C2.36615 12.3403 2.47748 12.3229 2.58382 12.288L3.83525 11.8657C4.05131 12.0093 4.27669 12.1383 4.5099 12.2519L4.77254 13.5497C4.81964 13.7868 4.94863 13.9998 5.13693 14.1514C5.32523 14.303 5.56085 14.3835 5.80253 14.3788H8.23331C8.475 14.3835 8.71062 14.303 8.89892 14.1514C9.08722 13.9998 9.21621 13.7868 9.2633 13.5497L9.52595 12.2519C9.76082 12.1383 9.98791 12.0093 10.2057 11.8657L11.452 12.288C11.5584 12.3229 11.6697 12.3403 11.7816 12.3395C11.9622 12.3393 12.1396 12.2916 12.296 12.2012C12.4524 12.1108 12.5823 11.9809 12.6726 11.8245L13.8468 9.76449C13.967 9.55799 14.0116 9.31611 13.9731 9.08029C13.9346 8.84447 13.8153 8.62938 13.6356 8.47186L12.6623 7.58092ZM11.7404 11.3095L9.97399 10.7121C9.56049 11.0623 9.08789 11.3361 8.57836 11.5206L8.21271 13.3695H5.78193L5.41629 11.5412C4.91078 11.3515 4.44074 11.0782 4.0258 10.7327L2.25422 11.3095L1.03883 9.2495L2.43962 8.01351C2.34439 7.48042 2.34439 6.93467 2.43962 6.40158L1.03883 5.12954L2.25422 3.06956L4.02065 3.66695C4.43416 3.3167 4.90675 3.04291 5.41629 2.85841L5.78193 1.00958H8.21271L8.57836 2.83781C9.08386 3.02755 9.5539 3.30087 9.96884 3.64635L11.7404 3.06956L12.9558 5.12954L11.555 6.36553C11.6503 6.89862 11.6503 7.44437 11.555 7.97746L12.9558 9.2495L11.7404 11.3095Z" fill="#5C5C5C"/>
<path d="M6.99732 10.2796C6.38618 10.2796 5.78877 10.0983 5.28062 9.7588C4.77248 9.41927 4.37643 8.93668 4.14256 8.37206C3.90869 7.80744 3.8475 7.18615 3.96672 6.58676C4.08595 5.98736 4.38024 5.43678 4.81238 5.00464C5.24452 4.5725 5.7951 4.27821 6.3945 4.15898C6.99389 4.03976 7.61518 4.10095 8.1798 4.33482C8.74442 4.56869 9.22701 4.96474 9.56654 5.47289C9.90607 5.98103 10.0873 6.57844 10.0873 7.18958C10.0914 7.59651 10.0143 8.00017 9.8605 8.37693C9.70667 8.75369 9.47922 9.09597 9.19147 9.38373C8.90371 9.67148 8.56143 9.89893 8.18467 10.0528C7.80791 10.2066 7.40425 10.2837 6.99732 10.2796ZM6.99732 5.1296C6.72507 5.12326 6.45435 5.17221 6.20156 5.27349C5.94876 5.37476 5.71914 5.52627 5.52657 5.71883C5.33401 5.9114 5.1825 6.14102 5.08122 6.39382C4.97995 6.64661 4.931 6.91733 4.93734 7.18958C4.931 7.46184 4.97995 7.73255 5.08122 7.98534C5.1825 8.23814 5.33401 8.46776 5.52657 8.66033C5.71914 8.85289 5.94876 9.0044 6.20156 9.10568C6.45435 9.20695 6.72507 9.2559 6.99732 9.24956C7.26957 9.2559 7.54029 9.20695 7.79308 9.10568C8.04588 9.0044 8.2755 8.85289 8.46807 8.66033C8.66063 8.46776 8.81214 8.23814 8.91341 7.98534C9.01469 7.73255 9.06364 7.46184 9.0573 7.18958C9.06364 6.91733 9.01469 6.64661 8.91341 6.39382C8.81214 6.14102 8.66063 5.9114 8.46807 5.71883C8.2755 5.52627 8.04588 5.37476 7.79308 5.27349C7.54029 5.17221 7.26957 5.12326 6.99732 5.1296Z" fill="#5C5C5C"/>
</svg>
