<svg width="14" height="17" viewBox="0 0 14 17" fill="none" xmlns="http://www.w3.org/2000/svg">
<path fill-rule="evenodd" clip-rule="evenodd" d="M6.57574 0.684984C6.81005 0.438339 7.18995 0.438339 7.42426 0.684984L10.6243 4.05338C10.8586 4.30002 10.8586 4.69991 10.6243 4.94656C10.3899 5.1932 10.0101 5.1932 9.77574 4.94656L7.6 2.65633V11.2368C7.6 11.5856 7.33137 11.8683 7 11.8683C6.66863 11.8683 6.4 11.5856 6.4 11.2368V2.65633L4.22426 4.94656C3.98995 5.1932 3.61005 5.1932 3.37574 4.94656C3.14142 4.69991 3.14142 4.30002 3.37574 4.05338L6.57574 0.684984ZM0.6 8.92098C0.931371 8.92098 1.2 9.20375 1.2 9.55256V13.342C1.2 13.8312 1.34493 14.142 1.56786 14.3698C1.81018 14.6173 2.19401 14.8157 2.74288 14.9573C3.82692 15.2371 5.29101 15.2369 6.87383 15.2367C6.9158 15.2367 6.95786 15.2367 7 15.2367C7.04214 15.2367 7.0842 15.2367 7.12617 15.2367C8.70899 15.2369 10.1731 15.2371 11.2571 14.9573C11.806 14.8157 12.1898 14.6173 12.4321 14.3698C12.6551 14.142 12.8 13.8312 12.8 13.342V9.55256C12.8 9.20375 13.0686 8.92098 13.4 8.92098C13.7314 8.92098 14 9.20375 14 9.55256V13.342C14 14.1403 13.7449 14.7889 13.2679 15.2762C12.8102 15.7438 12.194 16.0161 11.5429 16.1841C10.3136 16.5014 8.72 16.5006 7.21257 16.4999C7.14151 16.4999 7.07063 16.4999 7 16.4999C6.92937 16.4999 6.85849 16.4999 6.78743 16.4999C5.28 16.5006 3.68638 16.5014 2.45712 16.1841C1.80599 16.0161 1.18982 15.7438 0.732141 15.2762C0.255074 14.7889 0 14.1403 0 13.342V9.55256C0 9.20375 0.268629 8.92098 0.6 8.92098Z" fill="#5C5C5C"/>
</svg>
