<svg width="20" height="20" viewBox="0 0 20 20" fill="none" xmlns="http://www.w3.org/2000/svg">
<path fill-rule="evenodd" clip-rule="evenodd" d="M10 1.53846C5.32682 1.53846 1.53846 5.32682 1.53846 10C1.53846 11.9967 2.23003 13.8318 3.38669 15.279C3.50456 15.0014 3.65409 14.7442 3.8319 14.5073C4.30543 13.8764 4.95002 13.4283 5.6399 13.1107C7.0045 12.4826 8.67175 12.3077 10 12.3077C11.3283 12.3077 12.9955 12.4826 14.3601 13.1107C15.05 13.4283 15.6946 13.8764 16.1681 14.5073C16.3459 14.7442 16.4954 15.0014 16.6133 15.279C17.77 13.8318 18.4615 11.9967 18.4615 10C18.4615 5.32682 14.6732 1.53846 10 1.53846ZM15.3667 16.5422C15.3156 16.086 15.1589 15.7255 14.9377 15.4308C14.658 15.0582 14.2449 14.7513 13.7168 14.5083C12.6455 14.0151 11.2358 13.8462 10 13.8462C8.76415 13.8462 7.35448 14.0151 6.28318 14.5083C5.75511 14.7513 5.342 15.0582 5.06233 15.4308C4.84113 15.7255 4.68437 16.0859 4.63333 16.5422C6.09369 17.7416 7.96277 18.4615 10 18.4615C12.0372 18.4615 13.9063 17.7416 15.3667 16.5422ZM0 10C0 4.47716 4.47716 0 10 0C15.5229 0 20 4.47716 20 10C20 15.5229 15.5229 20 10 20C4.47716 20 0 15.5229 0 10ZM10 4.61539C8.72546 4.61539 7.69231 5.64857 7.69231 6.92308C7.69231 8.19763 8.72545 9.23077 10 9.23077C11.2746 9.23077 12.3077 8.19763 12.3077 6.92308C12.3077 5.64857 11.2745 4.61539 10 4.61539ZM6.15385 6.92308C6.15385 4.79892 7.87577 3.07692 10 3.07692C12.1242 3.07692 13.8462 4.79892 13.8462 6.92308C13.8462 9.0473 12.1242 10.7692 10 10.7692C7.87578 10.7692 6.15385 9.0473 6.15385 6.92308Z" fill="#5C5C5C"/>
</svg>
